<svg width="500" height="500" viewBox="0 0 500 500" fill="none" xmlns="http://www.w3.org/2000/svg">
<rect width="500" height="500" rx="16" fill="white"/>
<path fill-rule="evenodd" clip-rule="evenodd" d="M195.316 64.058C195.316 81.0797 176.286 100.776 148.695 112.304C133.975 118.454 130.127 118.499 122.372 112.623C109.243 102.665 105.251 103.868 108.497 116.789C112.355 132.17 80.3994 185.149 62.9651 192.278L50 197.577L62.4183 204.224C85.2514 216.443 85.2514 282.73 62.4183 294.95L50 301.596L62.9651 306.896C80.3994 314.024 112.355 367.004 108.497 382.385C105.251 395.305 109.243 396.508 122.372 386.551C130.063 380.724 133.94 380.704 147.641 386.431C174.705 397.736 195.316 418.954 195.316 435.498V450.173L206.501 440.469C222.131 426.918 279.341 427.047 294.394 440.668C304.58 449.885 304.684 449.83 304.684 435.404C304.684 418.958 325.375 397.706 352.359 386.431C366.06 380.704 369.937 380.724 377.628 386.551C390.757 396.508 394.749 395.305 391.503 382.385C387.645 367.004 419.601 314.024 437.035 306.896L450 301.596L437.562 294.94C414.351 282.516 414.381 216.642 437.602 204.214L450 197.577L437.035 192.278C419.601 185.149 387.645 132.17 391.503 116.789C394.749 103.868 390.757 102.665 377.628 112.623C369.873 118.499 366.025 118.454 351.305 112.304C323.64 100.741 304.684 81.0897 304.684 63.9586V49L293.499 58.704C277.869 72.2557 220.659 72.1264 205.606 58.5051C195.415 49.2883 195.316 49.343 195.316 64.058ZM210.23 70.9135C210.23 73.4886 207.993 75.5914 205.258 75.5914C202.524 75.5914 200.287 72.1016 200.287 67.8412C200.287 63.5808 202.524 61.473 205.258 63.1632C207.993 64.8534 210.23 68.3383 210.23 70.9135ZM297.744 74.2442C292.693 79.3 288.523 71.689 292.669 64.9827C295.8 59.912 296.974 59.912 298.654 64.9628C299.807 68.4179 299.395 72.5937 297.744 74.2442ZM304.61 92.3546C328.005 107.83 342.998 131.628 347.442 160.332C350.157 177.816 355.426 186.7 372.522 202.558C400.938 228.926 400.551 240.504 372.05 216.682C349.913 198.179 345.394 190.284 335.074 152.075C327.681 124.733 312.236 106.115 287.677 94.9596C261.573 83.1031 238.014 83.2969 210.931 95.586C183.36 108.094 174.367 108.004 190.344 95.3722C219.571 72.2706 272.167 70.8836 304.61 92.3546ZM278.262 100.836L292.256 106.19L275.528 113.264C254.524 122.143 245.446 122.138 224.472 113.239L207.744 106.14L220.172 101.124C236.816 94.4078 261.151 94.2835 278.262 100.836ZM123.018 119.99C124.594 122.535 123.605 126.02 120.826 127.74C118.047 129.455 115.775 127.372 115.775 123.112C115.775 114.377 118.758 113.095 123.018 119.99ZM224.572 123.574C248.255 131.225 251.765 131.215 275.746 123.47C289.949 118.881 303.397 117.057 305.733 119.393C308.075 121.735 296.437 127.73 279.793 132.771C251.228 141.421 248.2 141.466 223.269 133.606C188.137 122.535 171.886 123.137 145.454 136.49C120.259 149.216 102.487 172.755 98.1072 199.188C93.5286 226.858 89.3328 234.429 87.1952 218.894C83.9887 195.663 95.5171 165.448 115.029 145.935C144.803 116.162 179.616 109.053 224.572 123.574ZM384.225 123.112C384.225 127.372 381.953 129.455 379.174 127.74C376.395 126.02 375.406 122.535 376.982 119.99C381.242 113.095 384.225 114.377 384.225 123.112ZM384.687 145.652C426.545 187.51 423.279 245.485 376.445 291.947C356.664 311.574 350.276 321.81 347.676 338.066C345.842 349.554 341.949 358.955 339.031 358.955C335.7 358.955 334.91 352.93 336.913 342.798C342.68 313.617 350.231 299.866 367.889 286.394C388.137 270.953 403.847 239.724 404.001 214.599C404.15 190.602 385.125 154.764 365.836 142.704C346.513 130.624 340.791 120.303 355.555 124.166C361.248 125.657 374.362 135.326 384.687 145.652ZM220.118 143.261C233.51 148.62 241.136 155.212 243.13 163.146C246.938 178.333 253.062 178.333 256.87 163.146C259.938 150.931 289.74 135.247 309.879 135.247C321.045 135.247 329.541 152.443 329.541 175.047C329.541 182.912 331.813 190.751 334.591 192.466C340.209 195.936 336.476 204.845 329.401 204.845C326.916 204.845 326.17 201.489 327.741 197.388C332.086 186.068 325.698 188.48 319.205 200.609C313.836 210.637 314.393 211.104 328.362 208.31C340.552 205.874 346.945 208.509 363.733 222.876C375.003 232.525 384.225 244.546 384.225 249.587C384.225 254.628 375.003 266.648 363.733 276.297C346.945 290.664 340.552 293.299 328.362 290.863C314.393 288.069 313.836 288.537 319.205 298.564C325.698 310.694 332.086 313.105 327.741 301.785C326.17 297.684 326.916 294.328 329.401 294.328C336.476 294.328 340.209 303.237 334.591 306.707C331.813 308.422 329.541 316.262 329.541 324.126C329.541 345.075 321.04 363.926 311.599 363.926C307.06 363.926 294.334 361.222 283.313 357.921C268.747 353.561 261.837 348.123 258.029 338.036C251.457 320.611 248.543 320.611 241.971 338.036C238.163 348.123 231.253 353.561 216.687 357.921C187.71 366.606 180.74 365.467 175.306 351.175C168.138 332.324 169.386 315.501 179.045 300.761L187.625 287.662L172.194 290.749C159.334 293.324 153.348 290.913 136.267 276.297C124.997 266.648 115.775 254.628 115.775 249.587C115.775 244.546 124.997 232.525 136.267 222.876C153.348 208.26 159.334 205.849 172.194 208.424L187.625 211.511L179.045 198.412C169.386 183.672 168.138 166.849 175.306 147.998C181.003 133.02 191.692 131.886 220.118 143.261ZM163.087 156.375C157.32 185.556 149.769 199.307 132.111 212.779C111.863 228.22 96.1535 259.45 95.9993 284.575C95.8502 308.571 114.875 344.409 134.164 356.469C153.487 368.55 159.209 378.87 144.445 375.007C127.776 370.647 96.9787 336.346 91.2716 315.779C79.4897 273.369 88.955 241.548 123.555 207.226C143.336 187.6 149.724 177.364 152.324 161.108C154.158 149.619 158.051 140.218 160.969 140.218C164.3 140.218 165.09 146.243 163.087 156.375ZM140.632 162.972C140.632 175.127 113.369 209.071 107.955 203.652C103.943 199.64 115.775 173.238 126.916 161.346C140.07 147.307 140.632 147.372 140.632 162.972ZM254.971 155.132C254.971 157.866 252.734 160.103 250 160.103C247.266 160.103 245.029 157.866 245.029 155.132C245.029 152.398 247.266 150.161 250 150.161C252.734 150.161 254.971 152.398 254.971 155.132ZM387.69 184.254C391.572 193.436 393.317 202.384 391.562 204.134C385.741 209.955 359.368 175.226 359.368 161.739C359.368 148.699 359.433 148.674 369.997 158.09C375.843 163.3 383.802 175.072 387.69 184.254ZM173.005 203.955C169.057 207.907 160.507 198.939 163.544 194.027C165.607 190.687 168.168 191.199 170.812 195.469C173.054 199.103 174.044 202.921 173.005 203.955ZM76.0048 199.72C76.0048 202.364 72.6492 203.244 68.5479 201.673C64.4466 200.097 61.0909 197.93 61.0909 196.856C61.0909 195.782 64.4466 194.902 68.5479 194.902C72.6492 194.902 76.0048 197.07 76.0048 199.72ZM438.909 196.856C438.909 197.93 435.553 200.097 431.452 201.673C427.351 203.244 423.995 202.364 423.995 199.72C423.995 197.07 427.351 194.902 431.452 194.902C435.553 194.902 438.909 195.782 438.909 196.856ZM154.73 313.811C157.3 320.865 161.889 335.848 164.926 347.098C172.319 374.441 187.764 393.058 212.323 404.214C238.959 416.309 260.107 415.986 290.243 403.021C320.617 389.951 326.737 393.481 301.219 409.344C274.414 426.008 225.551 425.983 198.711 409.299C174.466 394.226 156.913 367.516 152.553 339.07C149.828 321.297 144.678 312.573 127.478 296.615C115.571 285.564 105.833 273.707 105.833 270.267C105.833 260.523 149.49 299.399 154.73 313.811ZM409.111 314.099C399.039 351.503 354.675 383.811 313.379 383.811C306.489 383.811 289.278 380.073 275.125 375.504C251.168 367.764 247.629 367.759 223.742 375.395C209.633 379.909 196.275 381.788 194.058 379.571C191.841 377.354 203.608 371.428 220.207 366.402C248.772 357.752 251.8 357.707 276.731 365.567C311.863 376.638 328.114 376.036 354.546 362.683C379.741 349.957 397.513 326.418 401.893 299.986C403.538 290.038 406.253 278.544 407.928 274.443C413.784 260.106 414.768 293.1 409.111 314.099ZM76.0048 299.3C76.0048 302.034 72.0924 304.236 67.3051 304.196C59.868 304.132 59.689 303.416 66.0622 299.3C75.4431 293.235 76.0048 293.235 76.0048 299.3ZM132.921 315.357C137.162 321.412 140.632 331.812 140.632 338.458C140.632 350.454 140.542 350.474 130.003 341.083C120.851 332.93 105.833 305.409 105.833 296.799C105.833 291.201 125.385 304.599 132.921 315.357ZM172.269 301.755C170.698 305.842 167.377 307.925 164.887 306.384C159.672 303.162 163.857 294.328 170.599 294.328C173.084 294.328 173.835 297.669 172.269 301.755ZM387.69 314.919C383.802 324.101 375.843 335.873 369.997 341.083C359.423 350.504 359.368 350.484 359.368 336.972C359.368 328.466 365.026 317.733 374.506 308.253C392.706 290.058 397.235 292.345 387.69 314.919ZM438.909 302.317C438.909 303.391 435.553 304.271 431.452 304.271C427.351 304.271 423.995 302.103 423.995 299.454C423.995 296.809 427.351 295.929 431.452 297.5C435.553 299.076 438.909 301.243 438.909 302.317ZM254.971 344.041C254.971 346.775 252.734 349.012 250 349.012C247.266 349.012 245.029 346.775 245.029 344.041C245.029 341.307 247.266 339.07 250 339.07C252.734 339.07 254.971 341.307 254.971 344.041ZM123.018 373.526C124.594 376.071 123.605 379.556 120.826 381.276C118.047 382.991 115.775 380.908 115.775 376.648C115.775 367.913 118.758 366.631 123.018 373.526ZM384.225 376.648C384.225 380.908 381.953 382.991 379.174 381.276C376.395 379.556 375.406 376.071 376.982 373.526C381.242 366.631 384.225 367.913 384.225 376.648ZM275.528 385.909L292.256 392.984L278.262 398.338C260.41 405.173 239.535 405.163 221.738 398.308L207.744 392.919L222.658 386.282C242.449 377.478 255.364 377.389 275.528 385.909ZM210.23 428.26C210.23 430.835 207.993 434.32 205.258 436.01C202.524 437.7 200.287 435.592 200.287 431.332C200.287 427.072 202.524 423.582 205.258 423.582C207.993 423.582 210.23 425.685 210.23 428.26ZM299.713 431.332C299.713 435.592 297.476 437.7 294.742 436.01C292.007 434.32 289.77 430.835 289.77 428.26C289.77 425.685 292.007 423.582 294.742 423.582C297.476 423.582 299.713 427.072 299.713 431.332Z" fill="#021A30"/>
</svg>
